<svg xmlns="http://www.w3.org/2000/svg" width="90" height="30.453" viewBox="0 0 90 30.453">
  <g id="Group_5165" data-name="Group 5165" transform="translate(-5 -3.874)">
    <path id="Path_19572" data-name="Path 19572" d="M5,6.687V31.513a2.832,2.832,0,0,0,2.85,2.813H55.477a2.832,2.832,0,0,0,2.85-2.813V6.687a2.832,2.832,0,0,0-2.85-2.813H7.85A2.831,2.831,0,0,0,5,6.687ZM12.306,28.5a1.393,1.393,0,0,1-1.543,1.374,1.441,1.441,0,0,1-1.255-1.453V25.8a1.441,1.441,0,0,1,1.255-1.453,1.393,1.393,0,0,1,1.543,1.374Z" transform="translate(0 0)"/>
    <path id="Path_19573" data-name="Path 19573" d="M49.346,13.6h0a2.14,2.14,0,0,1,2.079-2.2h.291A2.14,2.14,0,0,1,53.8,13.6h0a2.14,2.14,0,0,1-2.079,2.2h-.291A2.14,2.14,0,0,1,49.346,13.6Zm0,21.133V17.236h4.576V34.729ZM57,26.673v-7.99q0-8.552,7.087-8.552a8.219,8.219,0,0,1,2.655.4,5.351,5.351,0,0,1,3.245,2.809,8.381,8.381,0,0,1,.733,2.212,14.283,14.283,0,0,1,.224,2.628v2.078H66.084V18.027q0-.657-.027-1.133a8.6,8.6,0,0,0-.143-1.086,3.7,3.7,0,0,0-.312-.992,1.781,1.781,0,0,0-.584-.65,1.6,1.6,0,0,0-.93-.268q-2.145,0-2.145,3.566V27.879q0,3.553,2.145,3.552a1.619,1.619,0,0,0,1.072-.362,2.016,2.016,0,0,0,.625-1.026,7.718,7.718,0,0,0,.258-1.3,13.924,13.924,0,0,0,.068-1.454V24.81h4.834v2.037a16.74,16.74,0,0,1-.231,2.547,9.634,9.634,0,0,1-.693,2.265,6.126,6.126,0,0,1-1.242,1.857,5.508,5.508,0,0,1-1.948,1.22,7.561,7.561,0,0,1-2.743.462,8.185,8.185,0,0,1-2.817-.449,5.73,5.73,0,0,1-2.023-1.207,6.106,6.106,0,0,1-1.31-1.863,9.156,9.156,0,0,1-.726-2.326A15.856,15.856,0,0,1,57,26.673Zm23.218,8.056-.448-1.81a2.818,2.818,0,0,1-1.29,1.709,4.6,4.6,0,0,1-2.227.489,3.7,3.7,0,0,1-1.711-.375A2.925,2.925,0,0,1,73.4,33.73a4.756,4.756,0,0,1-.611-1.367,5.873,5.873,0,0,1-.2-1.535,7.1,7.1,0,0,1,.19-1.689,6.776,6.776,0,0,1,.482-1.374,4.61,4.61,0,0,1,.814-1.146,9.021,9.021,0,0,1,1.019-.932,8.928,8.928,0,0,1,1.269-.791q.774-.409,1.385-.684t1.534-.65V22.088a3.179,3.179,0,0,0-.231-1.381.812.812,0,0,0-.787-.456,1.118,1.118,0,0,0-.618.154.813.813,0,0,0-.333.462,3.028,3.028,0,0,0-.122.556,6.323,6.323,0,0,0-.027.663v.992h-4.44a6.469,6.469,0,0,1,1.534-4.632,5.854,5.854,0,0,1,4.453-1.615,5.018,5.018,0,0,1,3.571,1.461,4.635,4.635,0,0,1,1.534,3.472v8.311a20.451,20.451,0,0,0,.584,4.652H80.218Zm-.923-3.954v-4.3a5.071,5.071,0,0,0-2.254,3.941,1.877,1.877,0,0,0,.21.918.747.747,0,0,0,.713.382,1.026,1.026,0,0,0,.564-.181,2.122,2.122,0,0,0,.4-.315Q79.051,31.083,79.295,30.775Z" transform="translate(-27.716 -3.94)" fill="#fff"/>
    <path id="Path_19574" data-name="Path 19574" d="M149.981,41.908l3.5-1.233q.136.4.217.623t.278.643a3.245,3.245,0,0,0,.38.65,2.082,2.082,0,0,0,.475.422,1.1,1.1,0,0,0,.618.194q.856,0,.855-.992a1.825,1.825,0,0,0-.17-.744,4.47,4.47,0,0,0-.353-.657,4.927,4.927,0,0,0-.638-.717q-.455-.443-.7-.657t-.855-.724l-.747-.63a13.029,13.029,0,0,1-2.281-2.453,4.629,4.629,0,0,1-.828-2.681,4.359,4.359,0,0,1,.482-2.058,4.065,4.065,0,0,1,1.3-1.481,6.4,6.4,0,0,1,1.826-.864,7.4,7.4,0,0,1,2.125-.3,4.527,4.527,0,0,1,1.9.415,5.381,5.381,0,0,1,1.6,1.106,7.641,7.641,0,0,1,1.188,1.555,7.95,7.95,0,0,1,.774,1.816l-3.286,1.113q-.163-.4-.271-.663a6.844,6.844,0,0,0-.346-.684,4.041,4.041,0,0,0-.462-.677,2.293,2.293,0,0,0-.55-.449,1.307,1.307,0,0,0-.679-.194.889.889,0,0,0-.74.335,1.2,1.2,0,0,0-.265.764,2.093,2.093,0,0,0,.658,1.32,17.183,17.183,0,0,0,1.813,1.682l.842.737q.678.6,1.174,1.133a13.527,13.527,0,0,1,.991,1.2,5.477,5.477,0,0,1,.76,1.408,4.336,4.336,0,0,1,.265,1.475,4.53,4.53,0,0,1-1.514,3.5,5.237,5.237,0,0,1-3.659,1.381,5.374,5.374,0,0,1-3.585-1.274A6.6,6.6,0,0,1,149.981,41.908Zm12.315-.322v-7.44a6.458,6.458,0,0,1,1.344-4.35,6.183,6.183,0,0,1,8.208-.007,6.477,6.477,0,0,1,1.338,4.357v3.619h-6.314V41.64q0,1.474.869,1.475.95,0,.951-1.582V39.616h4.494v1.97a4.47,4.47,0,0,1-1.6,3.559,6.049,6.049,0,0,1-7.685-.007A4.474,4.474,0,0,1,162.3,41.586Zm4.576-6.193h1.779V32.98q0-1.327-.91-1.327-.869,0-.869,1.327Zm7.644,6.515,3.5-1.233q.135.4.217.623t.278.643a3.265,3.265,0,0,0,.38.65,2.086,2.086,0,0,0,.476.422,1.094,1.094,0,0,0,.618.194q.856,0,.855-.992a1.831,1.831,0,0,0-.169-.744,4.537,4.537,0,0,0-.353-.657,4.935,4.935,0,0,0-.639-.717q-.455-.443-.7-.657t-.855-.724l-.747-.63a13.017,13.017,0,0,1-2.281-2.453,4.629,4.629,0,0,1-.828-2.681,4.359,4.359,0,0,1,.482-2.058,4.06,4.06,0,0,1,1.3-1.481,6.4,6.4,0,0,1,1.827-.864,7.394,7.394,0,0,1,2.125-.3,4.528,4.528,0,0,1,1.9.415,5.387,5.387,0,0,1,1.6,1.106,7.652,7.652,0,0,1,1.188,1.555,7.984,7.984,0,0,1,.774,1.816l-3.286,1.113q-.163-.4-.271-.663a6.861,6.861,0,0,0-.346-.684,3.955,3.955,0,0,0-.462-.677,2.279,2.279,0,0,0-.55-.449,1.307,1.307,0,0,0-.679-.194.889.889,0,0,0-.74.335,1.2,1.2,0,0,0-.265.764,2.094,2.094,0,0,0,.658,1.32,17.3,17.3,0,0,0,1.813,1.682l.842.737q.678.6,1.174,1.133a13.53,13.53,0,0,1,.992,1.2,5.5,5.5,0,0,1,.76,1.408,4.353,4.353,0,0,1,.264,1.475,4.529,4.529,0,0,1-1.514,3.5,5.238,5.238,0,0,1-3.66,1.381,5.374,5.374,0,0,1-3.585-1.274A6.6,6.6,0,0,1,174.516,41.908Z" transform="translate(-90.46 -15.342)"/>
  </g>
</svg>
